
<svg width="35px" height="31px" viewBox="0 0 35 31" version="1.1" xmlns="http://www.w3.org/2000/svg" xmlns:xlink="http://www.w3.org/1999/xlink">
    <!-- Generator: Sketch 48.2 (47327) - http://www.bohemiancoding.com/sketch -->
    <desc>Created with Sketch.</desc>
    <defs></defs>
    <g id="Page-1" stroke="none" stroke-width="1" fill="none" fill-rule="evenodd">
        <g id="Artboard" transform="translate(-2443.000000, -2489.000000)" fill="#FFFFFF" fill-rule="nonzero">
            <g id="pages-variations" transform="translate(1203.000000, 2374.000000)">
                <g id="first-pages-copy" transform="translate(0.000000, 94.000000)">
                    <g id="black-cart" transform="translate(1221.000000, 0.000000)">
                        <g id="shopping-cart-copy" transform="translate(19.000000, 21.000000)">
                            <path d="M27.712002,22.5318553 C25.3056152,22.5318553 23.3479395,24.4208106 23.3479395,26.7425787 C23.3479395,29.0643468 25.3056836,30.9533021 27.712002,30.9533021 C30.1183203,30.9533021 32.0760645,29.0643468 32.0760645,26.7425787 C32.0760645,24.4208106 30.1183203,22.5318553 27.712002,22.5318553 Z M27.712002,28.4268681 C26.7492969,28.4268681 25.966377,27.6714574 25.966377,26.7425787 C25.966377,25.8137 26.7492969,25.0582894 27.712002,25.0582894 C28.674707,25.0582894 29.457627,25.8137 29.457627,26.7425787 C29.457627,27.6714574 28.674707,28.4268681 27.712002,28.4268681 Z" id="Shape"></path>
                            <path d="M34.7215723,6.25771277 C34.4737012,5.95160426 34.0935547,5.77305745 33.6907812,5.77305745 L8.08144531,5.77305745 L6.90313477,1.01620638 C6.76217773,0.447785106 6.23540039,0.0465 5.62966797,0.0465 L1.30921875,0.0465 C0.586113281,0.0464340426 0,0.611953191 0,1.30965106 C0,2.00734894 0.586113281,2.57286809 1.30921875,2.57286809 L4.5962793,2.57286809 L8.85124023,19.7510234 C8.99219727,20.3199064 9.51897461,20.7207298 10.124707,20.7207298 L30.5050293,20.7207298 C31.1068652,20.7207298 31.6313867,20.3249191 31.7758301,19.7615106 L34.9616504,7.33981064 C35.0580371,6.9626 34.9694434,6.56382128 34.7215723,6.25771277 Z M29.4807324,18.1943617 L11.1580957,18.1943617 L8.70720703,8.29949149 L32.017959,8.29949149 L29.4807324,18.1943617 Z" id="Shape"></path>
                            <path d="M11.870332,22.5318553 C9.46394531,22.5318553 7.50626953,24.4208106 7.50626953,26.7425787 C7.50626953,29.0643468 9.46401367,30.9533021 11.870332,30.9533021 C14.2766504,30.9533021 16.2343945,29.0643468 16.2343945,26.7425787 C16.2343945,24.4208106 14.2766504,22.5318553 11.870332,22.5318553 Z M11.870332,28.4268681 C10.907627,28.4268681 10.124707,27.6714574 10.124707,26.7425787 C10.124707,25.8137 10.907627,25.0582894 11.870332,25.0582894 C12.8330371,25.0582894 13.615957,25.8137 13.615957,26.7425787 C13.615957,27.6714574 12.8330371,28.4268681 11.870332,28.4268681 Z" id="Shape"></path>
                        </g>
                    </g>
                </g>
            </g>
        </g>
    </g>
</svg>