
<svg width="60px" height="60px" viewBox="0 0 60 60" version="1.1" xmlns="http://www.w3.org/2000/svg" xmlns:xlink="http://www.w3.org/1999/xlink">
    <!-- Generator: Sketch 48.2 (47327) - http://www.bohemiancoding.com/sketch -->
    <desc>Created with Sketch.</desc>
    <defs></defs>
    <g id="Page-1" stroke="none" stroke-width="1" fill="none" fill-rule="evenodd">
        <g id="1440" transform="translate(-1090.000000, -3164.000000)" fill="#FFFFFF" fill-rule="nonzero">
            <g id="all">
                <g id="advs" transform="translate(0.000000, 3116.000000)">
                    <g id="4" transform="translate(1025.000000, 48.000000)">
                        <g id="like" transform="translate(65.000000, 0.000000)">
                            <path d="M54.7235156,21.4162857 L41.4451172,21.4162857 C42.8112891,18.4637143 43.7211328,15.6538571 44.1587109,13.0284286 C44.7162891,9.68371429 44.4801562,6.68785714 43.4757422,4.36428571 C42.3031641,1.65142857 40.1170312,0.0252857143 37.6278516,0.0142857143 C37.6192969,0.0142857143 37.6108594,0.0142857143 37.6024219,0.0142857143 C35.9025,0.0142857143 34.6327734,0.771142857 33.8288672,2.26371429 C33.2029687,3.42571429 32.9521875,4.84157143 32.6619141,6.481 C31.9652344,10.4141429 31.0158984,15.7711429 24.3028125,21.4162857 C23.199375,21.4164286 20.655,21.4165714 19.0327734,21.4164286 C18.3072656,18.9224286 16.3533984,17.1307143 14.0619141,17.1307143 L1.75769531,17.1307143 C0.78703125,17.1308571 0,18.0902857 0,19.2735714 L0,57.8428571 C0,59.0262857 0.78703125,59.9855714 1.75769531,59.9855714 L14.0616797,59.9855714 C16.3531641,59.9855714 18.3069141,58.194 19.0325391,55.7001429 L21.0875391,55.7001429 C26.9900391,57.7004286 33.1073437,59.9855714 39.4744922,59.9855714 L47.6926172,59.9855714 C50.6002734,59.9855714 52.9657031,57.1018571 52.9657031,53.5574286 C52.9657031,52.7208571 52.8325781,51.922 52.5929297,51.1881429 C55.5991406,50.1892857 57.2792578,46.2028571 56.1083203,42.6171429 C59.8865625,41.3617143 61.2635156,35.6851429 58.6495312,32.13 C61.6849219,28.0017143 59.2692187,21.4162857 54.7235156,21.4162857 Z M15.819375,23.5761429 L15.8192578,23.5761429 C15.8192578,23.577 15.819375,23.5778571 15.819375,23.5787143 L15.819375,53.5574286 C15.819375,54.7388571 15.0308203,55.7 14.0616797,55.7 L3.51539063,55.7 L3.51539063,21.4162857 L14.0616797,21.4162857 C15.0309375,21.4162857 15.819375,22.3775714 15.819375,23.559 L15.819375,23.5761429 Z M45.9349219,34.2728571 L54.7235156,34.2728571 C55.6927734,34.2728571 56.4812109,35.2341429 56.4812109,36.4155714 C56.4812109,37.5971429 55.6926562,38.5581429 54.7235156,38.5581429 C53.9255859,38.5581429 46.7508984,38.5581429 45.9349219,38.5581429 C44.9641406,38.5581429 44.1772266,39.5175714 44.1772266,40.7008571 C44.1772266,41.8842857 44.9642578,42.8435714 45.9349219,42.8435714 L51.2080078,42.8435714 C52.1772656,42.8435714 52.9657031,43.8048571 52.9657031,44.9862857 C52.9657031,46.1678571 52.1771484,47.129 51.2080078,47.129 L45.9349219,47.129 C44.9641406,47.129 44.1772266,48.0884286 44.1772266,49.2717143 C44.1772266,50.455 44.9642578,51.4144286 45.9349219,51.4144286 L47.6926172,51.4144286 C48.661875,51.4144286 49.4503125,52.3757143 49.4503125,53.5571429 C49.4503125,54.7385714 48.6617578,55.6998571 47.6926172,55.6998571 L39.4744922,55.6998571 C33.5411719,55.6998571 27.5642578,53.4414286 21.7965234,51.4922857 C21.4980469,51.3915714 21.5305078,51.443 19.3348828,51.443 L19.3348828,25.6734286 C22.0264453,25.6735714 24.8518359,25.7018571 24.8518359,25.7018571 C25.1957813,25.6997143 25.5312891,25.5745714 25.8173438,25.342 C34.1114063,18.6014286 35.355,11.5804286 36.0979688,7.38557143 C36.6452344,4.29585714 36.7373438,4.29671429 37.6148438,4.29985714 C38.8160156,4.30514286 39.7930078,5.03771429 40.3657031,6.36228571 C40.9169531,7.63785714 42.2912109,12.5605714 36.8274609,22.3541429 C36.0352734,23.7738571 36.8715234,25.702 38.2808203,25.702 L54.7235156,25.702 C55.6927734,25.702 56.4812109,26.6632857 56.4812109,27.8447143 C56.4812109,29.0262857 55.6926562,29.9874286 54.7235156,29.9874286 L45.9349219,29.9874286 C44.9641406,29.9874286 44.1772266,30.9468571 44.1772266,32.1301429 C44.1772266,33.3135714 44.9641406,34.2728571 45.9349219,34.2728571 Z" id="Shape"></path>
                            <ellipse id="Oval" cx="10.5462891" cy="49.2724286" rx="1.75769531" ry="2.14271429"></ellipse>
                        </g>
                    </g>
                </g>
            </g>
        </g>
    </g>
</svg>