
<svg width="60px" height="60px" viewBox="0 0 60 60" version="1.1" xmlns="http://www.w3.org/2000/svg" xmlns:xlink="http://www.w3.org/1999/xlink">
    <!-- Generator: Sketch 48.2 (47327) - http://www.bohemiancoding.com/sketch -->
    <desc>Created with Sketch.</desc>
    <defs></defs>
    <g id="Page-1" stroke="none" stroke-width="1" fill="none" fill-rule="evenodd">
        <g id="1440" transform="translate(-550.000000, -3164.000000)" fill="#FFFFFF" fill-rule="nonzero">
            <g id="all">
                <g id="advs" transform="translate(0.000000, 3116.000000)">
                    <g id="2" transform="translate(485.000000, 48.000000)">
                        <g id="mail" transform="translate(65.000000, 0.000000)">
                            <path d="M30,7.03125 C22.2804,7.03125 16,12.5511328 16,19.3359375 C16,23.5480078 18.4168,27.4236328 22.4649333,29.7031641 C26.5986667,32.0308594 31.6729333,32.2782422 36.3884,30.3714844 C37.3917333,29.9657812 37.8310667,28.921875 37.3693333,28.0399219 C36.9077333,27.1580859 35.7201333,26.7719531 34.7165333,27.1776562 C31.2685333,28.5719531 27.5893333,28.4133984 24.6228,26.7430078 C21.7281333,25.1130469 20,22.3440234 20,19.3359375 C20,14.4896484 24.486,10.546875 30,10.546875 C35.514,10.546875 40,14.4896484 40,19.3359375 C40,20.3051953 39.1028,21.09375 38,21.09375 C36.9922667,21.09375 36.0509333,20.4220312 36.0002667,19.3626563 C36.0001333,19.35375 36,19.3448438 36,19.3359375 C36,16.4281641 33.3084,14.0625 30,14.0625 C26.6916,14.0625 24,16.4281641 24,19.3359375 C24,22.2437109 26.6916,24.609375 30,24.609375 C31.5354667,24.609375 32.9374667,24.0992578 33.9998667,23.2624219 C35.0621333,24.099375 36.4644,24.609375 38,24.609375 C41.3084,24.609375 44,22.2437109 44,19.3359375 C44,12.5511328 37.7196,7.03125 30,7.03125 Z M31.9718667,19.6178906 C31.8174667,20.4533203 30.9933333,21.09375 30,21.09375 C28.8972,21.09375 28,20.3051953 28,19.3359375 C28,18.3666797 28.8972,17.578125 30,17.578125 C31.0254667,17.578125 31.872,18.2601563 31.986,19.1349609 C31.9561333,19.2946875 31.9512,19.4572266 31.9718667,19.6178906 Z" id="Shape"></path>
                            <path d="M59.9998667,23.083125 C59.9993333,22.6285547 59.7910667,22.1742188 59.4141333,21.8429297 L52,15.3266016 L52,1.7578125 C52,0.78703125 51.1045333,0 50,0 L10,0 C8.89546667,0 8,0.78703125 8,1.7578125 L8,15.3266016 L0.585866667,21.8429297 C0.578933333,21.8490234 0.573066667,21.8558203 0.566266667,21.8620313 C0.191466667,22.2014062 0.000933333333,22.6482422 0.000133333333,23.083125 C0.000133333333,23.0842969 0,23.0853516 0,23.0865234 L0,54.7265625 C0,57.6380859 2.69546667,60 6,60 L54,60 C57.3118667,60 60,57.6319922 60,54.7265625 L60,23.0865234 C60,23.0853516 59.9998667,23.0842969 59.9998667,23.083125 Z M52,20.2983984 L55.1716,23.0859375 L52,25.8734766 L52,20.2983984 Z M12,16.0552734 C12,16.0549219 12,16.0544531 12,16.0541016 L12,3.515625 L48,3.515625 L48,16.0541016 C48,16.0544531 48,16.0549219 48,16.0552734 L48,29.3891016 L37.1716,38.90625 L22.8284,38.90625 L12,29.3891016 L12,16.0552734 Z M8,20.2983984 L8,25.8734766 L4.8284,23.0859375 L8,20.2983984 Z M4,53.9984766 L4,27.3296484 L19.1716,40.6640625 L4,53.9984766 Z M6.82853333,56.484375 L22.8284,42.421875 L37.1716,42.421875 L53.1714667,56.484375 L6.82853333,56.484375 Z M56,53.9984766 L40.8284,40.6640625 L56,27.3296484 L56,53.9984766 Z" id="Shape"></path>
                        </g>
                    </g>
                </g>
            </g>
        </g>
    </g>
</svg>