
<svg width="60px" height="60px" viewBox="0 0 60 60" version="1.1" xmlns="http://www.w3.org/2000/svg" xmlns:xlink="http://www.w3.org/1999/xlink">
    <!-- Generator: Sketch 48.2 (47327) - http://www.bohemiancoding.com/sketch -->
    <desc>Created with Sketch.</desc>
    <defs></defs>
    <g id="Page-1" stroke="none" stroke-width="1" fill="none" fill-rule="evenodd">
        <g id="1440" transform="translate(-280.000000, -3164.000000)" fill="#FFFFFF" fill-rule="nonzero">
            <g id="all">
                <g id="advs" transform="translate(0.000000, 3116.000000)">
                    <g id="1" transform="translate(215.000000, 48.000000)">
                        <g id="telephone" transform="translate(65.000000, 0.000000)">
                            <path d="M55.434386,44.5011328 L48.0242105,36.8189062 C48.0173099,36.8117578 48.0102924,36.8046094 48.0032749,36.7975781 C45.9464327,34.7367187 42.6175439,34.7364844 40.5605848,36.7975781 L37.1774269,40.1872266 C35.6194152,41.7483984 33.0974269,41.7486328 31.5391813,40.1872266 C31.5384795,40.1865234 31.5377778,40.1858203 31.537076,40.1851172 L19.7718129,28.6756641 C18.2136842,27.1144922 18.2134503,24.5875781 19.7718129,23.0262891 L23.1548538,19.6366406 C25.2069006,17.5807031 25.2069006,14.2353516 23.1548538,12.1794141 L15.7121637,4.7221875 C13.660117,2.66636719 10.3214035,2.66636719 8.26947368,4.7221875 C8.26877193,4.72289063 5.78807018,7.20855469 5.78865497,7.20785156 C5.78807018,7.20855469 5.56374269,7.43320313 5.56315789,7.43390625 C-1.85298246,14.8644141 -1.85567251,26.8917187 5.56432749,34.3262109 L25.9008187,54.4236328 C33.3004678,61.8377344 45.2840936,61.8653906 52.7134503,54.4497656 C52.754152,54.4121484 55.3833918,51.9856641 55.4225731,51.9464062 C57.4704094,49.8943359 57.474386,46.5580078 55.434386,44.5011328 Z M10.7504094,7.20785156 C11.434386,6.52253906 12.5472515,6.52253906 13.2312281,7.20785156 L20.6739181,14.6650781 C21.3595322,15.3521484 21.3596491,16.4637891 20.6739181,17.1508594 L19.4335673,18.3936328 L9.50994152,8.45074219 L10.7504094,7.20785156 Z M28.3804678,51.9367969 L8.04397661,31.839375 C2.31321637,26.0973047 2.04140351,17.0426953 7.07590643,10.9833984 L16.9646784,20.8914844 C14.3746199,23.8376953 14.4823392,28.3473047 17.2930994,31.1635547 L29.0604678,42.6751172 C31.8729825,45.4908984 36.3594152,45.6067969 39.3084211,43.0000781 L49.1963743,52.9073438 C43.0892398,57.9903516 34.1066667,57.6740625 28.3804678,51.9367969 Z M52.9624561,49.4394141 L51.7835088,50.5279687 L41.8010526,40.5260156 L43.0414035,39.2832422 C43.7247953,38.5986328 44.8278363,38.5965234 45.5135673,39.2744531 C45.5272515,39.2886328 52.9277193,46.9608984 52.9416374,46.9747266 C53.6187135,47.6532422 53.625614,48.7525781 52.9624561,49.4394141 Z" id="Shape"></path>
                            <path d="M30.0608187,0.00234375 C29.0920468,0.00234375 28.3065497,0.789375 28.3065497,1.76003906 C28.3065497,2.73070313 29.0920468,3.51773438 30.0608187,3.51773438 C44.5702924,3.51773438 56.3746199,15.3451172 56.3746199,29.8829297 C56.3746199,30.8535937 57.160117,31.640625 58.1288889,31.640625 C59.0976608,31.640625 59.8831579,30.8537109 59.8831579,29.8829297 C59.8831579,13.3678125 46.5450292,0.00234375 30.0608187,0.00234375 Z" id="Shape"></path>
                            <path d="M30.0608187,7.03300781 C29.0920468,7.03300781 28.3065497,7.82003906 28.3065497,8.79070312 C28.3065497,9.76136719 29.0920468,10.5483984 30.0608187,10.5483984 C40.7010526,10.5483984 49.3576608,19.2217969 49.3576608,29.8829297 C49.3576608,30.8535937 50.1431579,31.640625 51.1119298,31.640625 C52.0807018,31.640625 52.8661988,30.8537109 52.8661988,29.8829297 C52.8661988,17.2835156 42.6356725,7.03300781 30.0608187,7.03300781 Z" id="Shape"></path>
                            <path d="M30.0608187,14.0637891 C29.0920468,14.0637891 28.3065497,14.8508203 28.3065497,15.8214844 C28.3065497,16.7921484 29.0920468,17.5791797 30.0608187,17.5791797 C36.8319298,17.5791797 42.3405848,23.0985937 42.3405848,29.8829297 C42.3405848,30.8535937 43.1260819,31.640625 44.0948538,31.640625 C45.0636257,31.640625 45.8491228,30.8537109 45.8491228,29.8829297 C45.8491228,21.1601953 38.7665497,14.0637891 30.0608187,14.0637891 Z" id="Shape"></path>
                            <path d="M30.0608187,21.0944531 C29.0920468,21.0944531 28.3065497,21.8814844 28.3065497,22.8521484 C28.3065497,23.8228125 29.0920468,24.6098437 30.0608187,24.6098437 C32.9626901,24.6098437 35.3236257,26.9752734 35.3236257,29.8829297 C35.3236257,30.8535938 36.1091228,31.640625 37.0778947,31.640625 C38.0466667,31.640625 38.8321637,30.8537109 38.8321637,29.8829297 C38.8320468,25.0369922 34.8973099,21.0944531 30.0608187,21.0944531 Z" id="Shape"></path>
                        </g>
                    </g>
                </g>
            </g>
        </g>
    </g>
</svg>