
<svg width="31px" height="31px" viewBox="0 0 31 31" version="1.1" xmlns="http://www.w3.org/2000/svg" xmlns:xlink="http://www.w3.org/1999/xlink">
    <!-- Generator: Sketch 48.2 (47327) - http://www.bohemiancoding.com/sketch -->
    <desc>Created with Sketch.</desc>
    <defs></defs>
    <g id="Page-1" stroke="none" stroke-width="1" fill="none" fill-rule="evenodd">
        <g id="1440" transform="translate(-1169.000000, -21.000000)" fill="#000000" fill-rule="nonzero">
            <g id="all">
                <g id="first-pages">
                    <g id="search" transform="translate(1148.000000, 0.000000)">
                        <g id="magnifying-glass-browser" transform="translate(21.000000, 21.000000)">
                            <path d="M21.5307889,20.1980372 C23.5720959,18.0566674 24.8456077,15.1893595 24.8456077,12.0317149 C24.8456077,5.40789876 19.2834542,0 12.4290832,0 C5.57471215,0 0.0125586354,5.40789876 0.0125586354,12.0317149 C0.0125586354,18.655531 5.57471215,24.0634298 12.4290832,24.0634298 C15.2195458,24.0634298 17.785209,23.1742293 19.8639936,21.6679752 L29.0967719,30.6146136 C29.3215053,30.8323822 29.6024222,30.9412665 29.883339,30.9412665 C30.1642559,30.9412665 30.4638785,30.8323822 30.6699062,30.6146136 C31.1006674,30.1972025 31.1006674,29.5076446 30.6699062,29.0721074 L21.5307889,20.1980372 Z M2.25989339,12.0317149 C2.25989339,6.60562603 6.81074627,2.17768595 12.4290832,2.17768595 C18.0287143,2.17768595 22.5982729,6.5875 22.5982729,12.0317149 C22.5982729,17.4759298 18.04742,21.8857438 12.4290832,21.8857438 C6.81074627,21.8857438 2.25989339,17.4578037 2.25989339,12.0317149 Z" id="Shape"></path>
                        </g>
                    </g>
                </g>
            </g>
        </g>
    </g>
</svg>