
<svg width="60px" height="60px" viewBox="0 0 60 60" version="1.1" xmlns="http://www.w3.org/2000/svg" xmlns:xlink="http://www.w3.org/1999/xlink">
    <!-- Generator: Sketch 48.2 (47327) - http://www.bohemiancoding.com/sketch -->
    <desc>Created with Sketch.</desc>
    <defs></defs>
    <g id="Page-1" stroke="none" stroke-width="1" fill="none" fill-rule="evenodd">
        <g id="1440" transform="translate(-820.000000, -3164.000000)" fill="#FFFFFF" fill-rule="nonzero">
            <g id="all">
                <g id="advs" transform="translate(0.000000, 3116.000000)">
                    <g id="3" transform="translate(755.000000, 48.000000)">
                        <g id="worldwide" transform="translate(65.000000, 0.000000)">
                            <path d="M52.9617188,25.7954297 C52.65375,11.510625 40.7779687,0.0005859375 26.3671875,0.0005859375 C11.7938672,0.0005859375 0,11.7933984 0,26.3677734 C0,40.9410937 11.7929297,52.7349609 26.3671875,52.7349609 C31.3252734,52.7349609 36.2145703,51.373125 40.340625,48.8709375 L46.1675391,59.1120703 C46.8404297,60.2947266 48.5501953,60.2954297 49.2232031,59.1119531 L58.528125,42.7536328 C58.535625,42.7405078 58.5430078,42.7271484 58.5501563,42.7139062 C59.4986719,40.9412109 60,38.9358984 60,36.9145312 C60,32.0131641 57.1189453,27.7723828 52.9617188,25.7954297 Z M17.9110547,5.13820312 C16.0658203,7.71433594 14.7730078,10.8660937 13.9203516,13.9208203 C10.8855469,14.7679687 7.72019531,16.0607812 5.1375,17.9105859 C7.46015625,12.1013672 12.1016016,7.460625 17.9110547,5.13820312 Z M13.0277344,17.8756641 C12.6481641,20.0316797 12.4139062,22.2922266 12.3351562,24.6099609 L3.87058594,24.6099609 C5.19832031,21.2907422 9.63269531,19.0450781 13.0277344,17.8756641 Z M12.3351562,28.1255859 C12.4139062,30.4432031 12.6480469,32.70375 13.0276172,34.8598828 C9.63316406,33.6907031 5.19832031,31.4450391 3.87046875,28.1255859 L12.3351562,28.1255859 Z M5.1375,34.8248437 C7.72019531,36.6745312 10.8855469,37.9673437 13.9203516,38.8146094 C14.7726563,41.8678125 16.0652344,45.0201563 17.9110547,47.5972266 C12.1016016,45.2748047 7.46015625,40.6340625 5.1375,34.8248437 Z M24.609375,48.864375 C21.2902734,47.5366406 19.0446094,43.1023828 17.8750781,39.7072266 C20.0312109,40.0867969 22.2917578,40.3209375 24.609375,40.3996875 L24.609375,48.864375 Z M24.609375,36.8828906 C21.8839453,36.7842187 19.2557813,36.4565625 16.8162891,35.9186719 C16.2782812,33.4791797 15.950625,30.8510156 15.8520703,28.1255859 L24.609375,28.1255859 L24.609375,36.8828906 Z M24.609375,24.6098437 L15.8520703,24.6098437 C15.9507422,21.8844141 16.2783984,19.25625 16.8162891,16.8166406 C19.2557813,16.2788672 21.8839453,15.9512109 24.609375,15.8525391 L24.609375,24.6098437 Z M24.609375,12.3357422 C22.2917578,12.4144922 20.0312109,12.6486328 17.8750781,13.0282031 C19.0442578,9.63386719 21.2899219,5.19890625 24.609375,3.87105469 L24.609375,12.3357422 Z M47.8388672,17.9709375 C45.2486719,16.1199609 42.0546094,14.8125 39.0026953,13.9560938 C38.1181641,10.8732422 36.7810547,7.71351563 34.899375,5.13421875 C40.7936719,7.46308594 45.4992187,12.1298437 47.8388672,17.9709375 Z M49.0896094,24.6099609 L40.6324219,24.6099609 C40.5513281,22.3121484 40.3114453,20.0676562 39.9233203,17.9227734 C43.2839063,19.0859766 47.7442969,21.3244922 49.0896094,24.6099609 Z M28.125,3.864375 C31.4963672,5.1853125 33.8198438,9.65132812 35.0264063,13.0511719 C32.81625,12.6575391 30.4985156,12.4157812 28.125,12.335625 L28.125,3.864375 Z M28.125,15.8524219 C30.9198047,15.9529688 33.6179297,16.2936328 36.1221094,16.8528516 C36.6757031,19.2864844 37.0132031,21.9024609 37.1153906,24.6098437 L28.125,24.6098437 L28.125,15.8524219 Z M37.1157422,28.1021484 C37.0804687,29.0603906 37.01625,30.0351562 36.9242578,30.9714844 C36.0773437,32.5003125 35.5466016,34.2271875 35.420625,36.06375 C33.1572656,36.5108203 30.6491016,36.7917187 28.1251172,36.8819531 L28.1251172,28.1021484 L37.1157422,28.1021484 Z M28.125,48.8744531 L28.125,40.3993359 C30.5048437,40.3195312 32.8807031,40.0805859 35.0867578,39.7000781 C33.4328906,44.4386719 30.8401172,47.8251562 28.125,48.8744531 Z M34.9449609,47.6199609 C35.8252734,46.4328516 36.6217969,45.0689063 37.3189453,43.5602344 L38.6010937,45.8136328 C37.4464453,46.5214453 36.2210156,47.1257813 34.9449609,47.6199609 Z M55.460625,41.0358984 L47.6950781,54.6877734 L40.12875,41.3894531 C40.1244141,41.3818359 40.1200781,41.3742187 40.115625,41.3666016 C39.324375,40.0236328 38.90625,38.4841406 38.90625,36.9145312 C38.90625,32.0682422 42.8490234,28.1254687 47.6953125,28.1254687 C52.5416016,28.1254687 56.484375,32.0682422 56.484375,36.9145312 C56.484375,38.3518359 56.1303516,39.7764844 55.460625,41.0358984 Z" id="Shape"></path>
                            <path d="M47.6953125,31.6410937 C44.7875391,31.6410937 42.421875,34.0067578 42.421875,36.9145313 C42.421875,39.8223047 44.7875391,42.1879688 47.6953125,42.1879688 C50.6030859,42.1879688 52.96875,39.8223047 52.96875,36.9145313 C52.96875,34.0067578 50.6030859,31.6410937 47.6953125,31.6410937 Z M47.6953125,38.6723438 C46.7260547,38.6723438 45.9375,37.8837891 45.9375,36.9145313 C45.9375,35.9452734 46.7260547,35.1567188 47.6953125,35.1567188 C48.6645703,35.1567188 49.453125,35.9452734 49.453125,36.9145313 C49.453125,37.8837891 48.6645703,38.6723438 47.6953125,38.6723438 Z" id="Shape"></path>
                        </g>
                    </g>
                </g>
            </g>
        </g>
    </g>
</svg>